<?xml version="1.0" encoding="UTF-8"?>
<svg version="1.1" xmlns="http://www.w3.org/2000/svg" width="512" height="512">
<path d="M0 0 C3.17152976 1.69445555 6.35845632 3.35960668 9.54315186 5.02914429 C10.20136932 5.37519211 10.85958679 5.72123993 11.53775024 6.07777405 C18.70269943 9.83614381 25.94449389 13.43646596 33.19158936 17.03305054 C41.88129855 21.35235606 50.52706189 25.73487822 59.08856201 30.30380249 C66.84391535 34.41694857 74.70782592 38.31006873 82.56658936 42.22055054 C91.06944058 46.4515553 99.56468194 50.68100691 107.94158936 55.15805054 C117.47340688 60.25111816 127.15873267 65.0333816 136.83276367 69.84851074 C145.93437 74.38054924 155.00664672 78.94819405 163.97039795 83.74911499 C168.03694221 85.9190855 172.13338123 88.0028293 176.27752686 90.02133179 C177.26075928 90.50231323 178.2439917 90.98329468 179.25701904 91.47885132 C181.14126658 92.39652063 183.02963613 93.30580066 184.92303467 94.20443726 C191.95138305 97.63216512 198.80647127 101.62403303 203.62908936 107.90805054 C205.39852565 114.16005876 205.77696251 120.54764316 203.06658936 126.53305054 C197.5246529 132.49063222 191.42488389 137.12810319 184.69158936 141.65805054 C184.02474121 142.10761108 183.35789307 142.55717163 182.6708374 143.02035522 C177.81778714 146.22055054 177.81778714 146.22055054 175.56658936 146.22055054 C175.89658936 146.88055054 176.22658936 147.54055054 176.56658936 148.22055054 C176.80457092 151.28315552 176.99086633 154.33320874 177.14471436 157.40023804 C177.25435975 159.2987354 177.36507271 161.19717135 177.47674561 163.09555054 C177.64895693 166.08119725 177.81515942 169.06657883 177.96258545 172.05355835 C178.76502876 188.24663526 178.76502876 188.24663526 184.56658936 203.22055054 C185.05232422 204.14368042 185.53805908 205.0668103 186.03851318 206.01791382 C187.36430188 208.44349628 188.54573038 210.33189729 190.56658936 212.22055054 C193.32051587 212.74097759 195.73464116 212.40035677 198.56658936 212.22055054 C201.78613581 214.7550871 203.2709137 216.33352358 204.56658936 220.22055054 C205.30989228 227.08087098 204.69798549 232.58143225 200.56658936 238.22055054 C195.15047882 244.42057181 187.70018587 248.38787967 180.75408936 252.63461304 C176.94189446 254.97106338 173.21160391 257.40964223 169.50408936 259.90805054 C163.28831216 264.08630463 157.03058023 268.196564 150.75408936 272.28305054 C149.7827002 272.91557739 148.81131104 273.54810425 147.81048584 274.19979858 C145.77787028 275.52331242 143.74523641 276.84679811 141.71258545 278.17025757 C136.32635285 281.68054636 130.94668817 285.20087093 125.56658936 288.72055054 C117.40374708 294.05976434 109.23769926 299.39399809 101.06658936 304.72055054 C88.55841307 312.87471752 76.06230161 321.04730082 63.56658936 329.22055054 C50.13498369 338.00595347 36.70144727 346.7883082 23.25604248 355.55258179 C17.07352511 359.58336155 10.8948177 363.61991562 4.71917725 367.66122437 C2.50709752 369.10786404 0.29405609 370.5530343 -1.91998291 371.99667358 C-7.01171689 375.31780233 -12.09132416 378.6533053 -17.13653564 382.04476929 C-18.02445801 382.63628784 -18.91238037 383.2278064 -19.82720947 383.83724976 C-21.45047087 384.91942402 -23.06813978 386.01006711 -24.67828369 387.11166382 C-34.78818848 393.81602166 -44.3450478 396.42698867 -56.43341064 395.22055054 C-71.13822774 392.14206178 -84.37345704 384.65415463 -97.66150498 377.92715096 C-100.91806984 376.28170457 -104.18148786 374.64995455 -107.44407654 373.01649475 C-112.92213414 370.27151939 -118.39577035 367.51790513 -123.86627197 364.75790405 C-131.51510579 360.89889781 -139.17182038 357.05574489 -146.83020556 353.21573699 C-152.85183657 350.19569363 -158.87133421 347.17140044 -164.89044189 344.14633179 C-165.5213682 343.82928292 -166.15229451 343.51223404 -166.80233979 343.18557763 C-179.5550799 336.77589678 -192.28884998 330.34071598 -204.8985405 323.65291405 C-211.89922467 319.9496232 -218.98556367 316.43437296 -226.1003437 312.95648003 C-229.90438721 311.09410233 -233.70036437 309.21536612 -237.49786377 307.33969116 C-242.26610595 304.98552331 -247.03656279 302.63621456 -251.81549072 300.30380249 C-255.741347 298.38720322 -259.65895503 296.45458789 -263.57172966 294.51143074 C-265.0426398 293.78451467 -266.51637529 293.0632824 -267.99313545 292.34832573 C-283.63332419 284.76941315 -295.80007693 274.75581718 -302.43341064 258.22055054 C-304.22743572 252.01401844 -304.90802927 246.1068345 -305.28497314 239.66976929 C-305.34904861 238.66549393 -305.41312408 237.66121857 -305.47914124 236.62651062 C-305.68189291 233.38752644 -305.87172299 230.1479981 -306.05841064 226.90805054 C-306.12311554 225.80839966 -306.18782043 224.70874878 -306.25448608 223.57577515 C-306.9992658 210.79958851 -307.7349146 198.02001404 -307.87091064 185.22055054 C-307.90402344 183.68854004 -307.90402344 183.68854004 -307.93780518 182.12557983 C-307.91294036 173.61084228 -305.45214654 166.42565895 -299.43341064 160.22055054 C-297.35062144 158.65774827 -295.31036346 157.23773111 -293.12091064 155.84555054 C-292.47702393 155.42620239 -291.83313721 155.00685425 -291.16973877 154.57479858 C-289.72522772 153.63502657 -288.27830641 152.69895231 -286.82940674 151.76596069 C-284.25974848 150.10853897 -281.69940042 148.43741064 -279.14044189 146.76351929 C-274.23913408 143.55842502 -269.33242535 140.36171366 -264.4241333 137.16732788 C-259.65467486 134.06270245 -254.88770798 130.95425968 -250.12091064 127.84555054 C-249.18271484 127.23380981 -248.24451904 126.62206909 -247.27789307 125.99179077 C-239.92973392 121.19940487 -232.58736902 116.39819307 -225.24591064 111.59555054 C-216.85407187 106.1059534 -208.4540352 100.62934417 -200.04327393 95.16879272 C-192.11220212 90.01717577 -184.19802845 84.83981401 -176.28375244 79.66244507 C-166.28204507 73.11990309 -156.27214084 66.58999309 -146.2600708 60.06332397 C-141.48408265 56.94973281 -136.70878479 53.8350833 -131.93341064 50.72055054 C-130.01674721 49.47054557 -128.10008055 48.22054557 -126.18341064 46.97055054 C-125.23466064 46.35180054 -124.28591064 45.73305054 -123.30841064 45.09555054 C-112.76674398 38.22055054 -102.22507731 31.34555054 -91.68341064 24.47055054 C-90.73353271 23.85099487 -89.78365479 23.23143921 -88.80499268 22.59310913 C-86.89997853 21.35084944 -84.99470757 20.10898347 -83.08917236 18.86752319 C-78.11697787 15.62737933 -73.15024126 12.37926883 -68.19122314 9.11898804 C-66.65111572 8.1086853 -66.65111572 8.1086853 -65.07989502 7.07797241 C-63.12899914 5.79797286 -61.179664 4.51558989 -59.23223877 3.23031616 C-38.26805925 -10.50797671 -22.39856421 -11.96991218 0 0 Z " fill="#BC8959" transform="translate(307.43341064453125,62.779449462890625)"/>
<path d="M0 0 C7.4852729 2.19869787 14.25395468 5.46261056 21.17880249 9.00494385 C24.53815581 10.72252142 27.90837374 12.41857296 31.27734375 14.1171875 C31.94919205 14.45652313 32.62104034 14.79585876 33.31324768 15.14547729 C38.73642021 17.88015586 44.19733608 20.52732259 49.6875 23.125 C61.0047053 28.48876354 72.25075208 33.99551572 83.5 39.5 C100.03188833 47.59453632 100.03188833 47.59453632 116.625 55.5625 C127.07793809 60.52992237 137.47567272 65.60912077 147.875 70.6875 C149.66364139 71.56065737 151.45229698 72.43378564 153.2409668 73.30688477 C156.79331655 75.04097 160.34564307 76.7751028 163.89794922 78.50927734 C164.75314148 78.92675232 165.60833374 79.34422729 166.48944092 79.77435303 C168.11761866 80.56922423 169.74575437 81.36418154 171.37384033 82.15924072 C179.68785985 86.21894625 188.00764344 90.26550187 196.34907532 94.26863098 C200.09209854 96.06839283 203.81715072 97.89995654 207.53050232 99.76013184 C210.40624736 101.19369595 213.29849969 102.59338803 216.1875 104 C217.18386475 104.51111328 218.18022949 105.02222656 219.20678711 105.54882812 C228.96960806 110.22590431 238.44009474 110.32681268 248.75 107.1875 C265.33730303 100.56729036 280.07948079 89.05486343 294.80224609 79.15087891 C299.25855302 76.15346984 303.71869222 73.16183523 308.18310547 70.17651367 C310.32298799 68.74537694 312.46138016 67.31200884 314.59814453 65.8762207 C315.55446777 65.23644287 316.51079102 64.59666504 317.49609375 63.9375 C318.76731079 63.08478516 318.76731079 63.08478516 320.06420898 62.21484375 C322 61 322 61 323 61 C324.53057212 75.46215557 325.76591311 89.93726019 326.85986328 104.4387207 C327.12652494 107.95762332 327.40103386 111.47586119 327.67578125 114.99414062 C327.84943543 117.27600541 328.02262885 119.55790531 328.1953125 121.83984375 C328.27653351 122.86931625 328.35775452 123.89878876 328.44143677 124.9594574 C328.6642373 127.97207964 328.84168328 130.98333125 329 134 C329.11037346 135.72874611 329.11037346 135.72874611 329.22297668 137.49241638 C329.56395024 146.23617374 329.56395024 146.23617374 326.94311523 149.78588867 C325.99122314 150.3244751 325.03933105 150.86306152 324.05859375 151.41796875 C323.00808838 152.04630615 321.95758301 152.67464355 320.87524414 153.32202148 C319.74078857 153.93762939 318.60633301 154.5532373 317.4375 155.1875 C316.26846595 155.86876418 315.10237089 156.55509561 313.93920898 157.24633789 C311.65339465 158.5991374 309.35819141 159.92512142 307.04980469 161.24023438 C303.43954464 163.32338794 299.9916313 165.5727055 296.5625 167.9375 C295.42181339 168.70627089 294.27981694 169.47310079 293.13671875 170.23828125 C292.51200684 170.65674316 291.88729492 171.07520508 291.24365234 171.50634766 C286.70821778 174.52569354 282.15171664 177.51306295 277.59396362 180.49856567 C275.93621121 181.58488839 274.27972638 182.67314471 272.62329102 183.76147461 C267.13515929 187.35324097 261.62572406 190.91157808 256.0703125 194.3984375 C255.04953613 195.04216309 254.02875977 195.68588867 252.97705078 196.34912109 C246.55094852 199.91261982 240.24429592 201.22721708 233.04232788 199.54188538 C225.92158818 197.21221643 219.33752616 193.86816776 212.6640625 190.49609375 C211.37746366 189.8512595 210.09062374 189.20690608 208.80355835 188.56300354 C206.11051485 187.21419035 203.41946883 185.86150306 200.72998047 184.50561523 C197.34375255 182.79851608 193.95421169 181.0981385 190.56327248 179.40042019 C187.26228655 177.74729845 183.96314918 176.09050155 180.6640625 174.43359375 C180.06394978 174.13259703 179.46383705 173.8316003 178.84553909 173.52148247 C171.55475306 169.86135179 164.31535696 166.11855883 157.10693359 162.29907227 C146.79955448 156.84721858 136.37809999 151.63131572 125.94110107 146.43296814 C122.53086377 144.73436165 119.12197377 143.03307654 115.71337891 141.33117676 C108.47672398 137.71850104 101.23849999 134.10897711 94 130.5 C85.597002 126.31042654 77.19472419 122.11942237 68.79412842 117.92503357 C65.47247363 116.26739329 62.14960334 114.61220893 58.82666016 112.95715332 C49.33950255 108.22560475 39.87044984 103.46347301 30.4765625 98.54882812 C29.73087006 98.1606768 28.98517761 97.77252548 28.21688843 97.372612 C16.34193646 91.11143021 9.31198536 85.92232121 3.98046875 73.2578125 C1.95616048 66.53162486 1.83073704 59.34928929 1.46484375 52.36328125 C1.42177597 51.56875549 1.37870819 50.77422974 1.33433533 49.95562744 C1.19826569 47.40810058 1.06726702 44.86035522 0.9375 42.3125 C0.89264465 41.44704559 0.84778931 40.58159119 0.80157471 39.68991089 C0.12258477 26.45144809 -0.27087083 13.25762246 0 0 Z " fill="#F0F1F1" transform="translate(17,241)"/>
<path d="M0 0 C3.52643918 1.35872777 6.91461617 2.91177553 10.30053711 4.58178711 C10.96126724 4.90383621 11.62199738 5.22588531 12.30274963 5.55769348 C14.45077014 6.60540698 16.59631113 7.65809886 18.74194336 8.71069336 C21.00699638 9.81669067 23.27271172 10.92132273 25.53848267 12.02584839 C27.04484644 12.76024214 28.55101154 13.49504353 30.05697632 14.23025513 C35.79033124 17.0281387 41.54201244 19.78569386 47.30444336 22.52319336 C58.95671837 28.07148309 70.54694251 33.74673584 82.14300537 39.41122437 C93.06014541 44.74389453 103.98290777 50.06359664 114.92944336 55.33569336 C126.23723909 60.78201947 137.52351098 66.27149603 148.80444336 71.77319336 C162.43299256 78.42086895 162.43299256 78.42086895 176.07788086 85.03491211 C176.97762131 85.46978943 176.97762131 85.46978943 177.89553833 85.91345215 C180.80242116 87.31728492 183.71207269 88.71496971 186.62524414 90.10571289 C192.3542719 92.84694799 198.04448588 95.63561848 203.68649292 98.55104065 C206.62566603 100.06617094 209.57616517 101.55849175 212.52764893 103.04946899 C213.93479445 103.76796936 215.33659855 104.49705364 216.7321167 105.23788452 C227.22733465 110.80423977 236.36090719 113.58717057 248.37304688 110.47924805 C257.16524412 107.19148082 264.88179155 101.61731537 272.61694336 96.39819336 C274.01987197 95.46262802 275.4235265 94.52815037 276.82788086 93.59472656 C279.64394835 91.72194033 282.45696415 89.84470602 285.26782227 87.96411133 C291.08149262 84.08064953 296.94205605 80.27009544 302.80444336 76.46069336 C304.66912504 75.24600056 306.53371949 74.03117385 308.39819336 72.81616211 C309.70022822 71.9684314 311.00229041 71.12074267 312.30444336 70.27319336 C308.9053799 67.47926014 305.17855946 65.6377589 301.23022461 63.76147461 C299.82562779 63.079149 298.42134084 62.39618522 297.01733398 61.71264648 C294.82649086 60.65101842 292.63393375 59.59377687 290.43554688 58.54785156 C278.78159084 52.98887897 268.29538064 47.3353037 262.30444336 35.27319336 C260.6808582 30.40243788 260.38756686 25.77712962 262.17553711 20.89428711 C264.94881289 15.52049699 268.45455939 11.83722913 273.30444336 8.27319336 C273.14588867 8.81459961 272.98733398 9.35600586 272.82397461 9.91381836 C271.32127783 16.73809547 271.19703132 24.27285071 274.95483398 30.34301758 C279.8489772 37.34249229 286.0758616 41.17146202 293.61694336 44.89819336 C294.60009521 45.39818848 295.58324707 45.89818359 296.59619141 46.41333008 C299.82437704 48.04956496 303.06285678 49.66368169 306.30444336 51.27319336 C307.48522461 51.86100586 308.66600586 52.44881836 309.88256836 53.05444336 C310.78341911 53.50287094 310.78341911 53.50287094 311.70246887 53.96035767 C312.9097038 54.56147108 314.11680777 55.16284759 315.32377625 55.76449585 C318.22875521 57.21210333 321.13652368 58.65338301 324.04980469 60.08422852 C325.09934326 60.60291504 326.14888184 61.12160156 327.23022461 61.65600586 C328.16261963 62.11378418 329.09501465 62.5715625 330.05566406 63.04321289 C332.30444336 64.27319336 332.30444336 64.27319336 334.30444336 66.27319336 C334.73445239 68.82081235 335.0351022 71.28690501 335.26538086 73.85522461 C335.34525238 74.67779251 335.4251239 75.50036041 335.50741577 76.34785461 C336.6790252 88.75173555 337.6341392 101.1766708 338.59155273 113.59863281 C338.87240036 117.23914438 339.16138458 120.87896151 339.45231056 124.51867962 C339.67962593 127.37984594 339.90124567 130.24143435 340.12141037 133.10315895 C340.27492759 135.08157968 340.43405554 137.05956259 340.59341431 139.03752136 C341.28126132 148.13660787 341.41494342 157.15600103 341.30444336 166.27319336 C352.43411891 159.40660358 363.38172382 152.3074109 374.24194336 145.02319336 C376.39060096 143.58574361 378.5396904 142.14894624 380.68936157 140.7130127 C382.05804188 139.79639552 383.42462335 138.87663529 384.78890991 137.95349121 C387.5840778 136.06516954 390.37042 134.23409127 393.27368164 132.51342773 C396.45983119 130.61816964 396.45983119 130.61816964 399.30444336 128.27319336 C399.69692643 125.94907792 400.03226586 123.61444836 400.30444336 121.27319336 C402.45191937 118.97989616 405.05872875 117.50166558 407.74194336 115.89819336 C409.39328176 114.85569449 411.0443047 113.81269582 412.69506836 112.76928711 C413.59547852 112.21096191 414.49588867 111.65263672 415.42358398 111.07739258 C420.66937395 107.79210547 425.82077138 104.36169944 430.99194336 100.96069336 C438.56071475 96.01305502 446.13639486 91.07596277 453.71557617 86.14428711 C455.66452732 84.87281321 457.61058582 83.59689235 459.5534668 82.31616211 C463.45311654 79.74874251 467.33686205 77.21231572 471.40209961 74.91381836 C475.6372332 72.45480184 475.6372332 72.45480184 479.30444336 69.27319336 C479.92664596 66.50117348 479.83835318 64.36078675 479.49194336 61.55053711 C479.30444336 59.27319336 479.30444336 59.27319336 480.80444336 56.14819336 C483.66800398 54.00052289 485.75791927 53.5568262 489.33569336 53.77709961 C492.67522067 54.61860748 494.26569508 56.61664257 496.30444336 59.27319336 C498.18193455 64.90566693 498.23468021 70.97927808 495.80444336 76.46069336 C490.79807949 85.05037931 481.72136551 89.65591753 473.49194336 94.68725586 C469.67974846 97.0237062 465.94945791 99.46228505 462.24194336 101.96069336 C456.02616616 106.13894745 449.76843423 110.24920683 443.49194336 114.33569336 C442.03485962 115.28448364 442.03485962 115.28448364 440.54833984 116.25244141 C438.51572429 117.57595524 436.48309041 118.89944093 434.45043945 120.22290039 C429.06420685 123.73318918 423.68454218 127.25351376 418.30444336 130.77319336 C410.14160108 136.11240716 401.97555326 141.44664091 393.80444336 146.77319336 C381.29626707 154.92736034 368.80015561 163.09994364 356.30444336 171.27319336 C342.8728377 180.0585963 329.43930128 188.84095102 315.99389648 197.60522461 C309.81137911 201.63600437 303.63267171 205.67255845 297.45703125 209.71386719 C295.24495152 211.16050686 293.03191009 212.60567713 290.81787109 214.04931641 C285.72613712 217.37044515 280.64652984 220.70594812 275.60131836 224.09741211 C274.713396 224.68893066 273.82547363 225.28044922 272.91064453 225.88989258 C271.28738313 226.97206685 269.66971422 228.06270993 268.05957031 229.16430664 C257.94966552 235.86866449 248.39280621 238.47963149 236.30444336 237.27319336 C221.59962626 234.19470461 208.36439697 226.70679745 195.07634902 219.97979379 C191.81978416 218.33434739 188.55636614 216.70259738 185.29377747 215.06913757 C179.81571987 212.32416222 174.34208366 209.57054796 168.87158203 206.81054688 C161.22274822 202.95154063 153.56603363 199.10838771 145.90764844 195.26837981 C139.88601744 192.24833645 133.86651979 189.22404326 127.84741211 186.19897461 C126.90102265 185.7234013 126.90102265 185.7234013 125.93551421 185.23822045 C113.1827741 178.8285396 100.44900402 172.3933588 87.83931351 165.70555687 C80.83862934 162.00226602 73.75229033 158.48701579 66.6375103 155.00912285 C62.8334668 153.14674515 59.03748963 151.26800894 55.23999023 149.39233398 C50.47174805 147.03816613 45.70129121 144.68885739 40.92236328 142.35644531 C36.996507 140.43984605 33.07889898 138.50723071 29.16612434 136.56407356 C27.69521421 135.83715749 26.22147871 135.11592522 24.74471855 134.40096855 C9.10452981 126.82205597 -3.06222293 116.80846 -9.69555664 100.27319336 C-11.48958172 94.06666126 -12.17017527 88.15947732 -12.54711914 81.72241211 C-12.61119461 80.71813675 -12.67527008 79.71386139 -12.74128723 78.67915344 C-12.94403891 75.44016927 -13.13386899 72.20064093 -13.32055664 68.96069336 C-13.38526154 67.86104248 -13.44996643 66.7613916 -13.51663208 65.62841797 C-14.26141179 52.85223133 -14.99706059 40.07265686 -15.13305664 27.27319336 C-15.15513184 26.25185303 -15.17720703 25.2305127 -15.19995117 24.17822266 C-15.17121548 14.33793965 -11.61181268 7.3533246 -4.82055664 0.33569336 C-2.69555664 -0.72680664 -2.69555664 -0.72680664 0 0 Z M2.30444336 20.27319336 C2.01699097 34.34239107 2.48582646 48.3489055 3.17944336 62.39819336 C3.21873962 63.24076691 3.25803589 64.08334045 3.29852295 64.95144653 C3.91938286 88.94169893 3.91938286 88.94169893 15.74194336 109.02319336 C21.6769942 113.67438121 28.58654241 116.91864204 35.30444336 120.27319336 C36.30170944 120.77215622 37.29897552 121.27111908 38.32646179 121.78520203 C47.82788428 126.53723156 57.33215972 131.28353971 66.83684826 136.02903271 C76.89456627 141.05077443 86.95131048 146.07446388 97.00767994 151.09890556 C103.73439335 154.45968774 110.46148444 157.81970989 117.18945312 161.17797852 C123.11362546 164.1350352 129.03706055 167.09356297 134.95966452 170.05375969 C138.07322202 171.60989624 141.18710657 173.16536876 144.30188942 174.71905136 C157.02935401 181.06931219 169.71348115 187.47911654 182.27915955 194.14428711 C187.50051687 196.91322999 192.76559408 199.59275689 198.04663086 202.24584961 C199.5200444 202.98683144 199.5200444 202.98683144 201.02322388 203.74278259 C203.05376587 204.76269318 205.084839 205.78154703 207.11645508 206.79931641 C210.22756485 208.35983082 213.33430879 209.92883452 216.44116211 211.49780273 C218.43439005 212.49767345 220.42787004 213.4970419 222.42163086 214.49584961 C223.34241425 214.9624147 224.26319763 215.4289798 225.21188354 215.90968323 C226.07113434 216.33780807 226.93038513 216.76593292 227.81567383 217.20703125 C228.56444794 217.58324112 229.31322205 217.95945099 230.08468628 218.34706116 C236.70688787 221.10999148 244.10988948 221.35964266 250.79663086 218.78491211 C256.85478509 216.25579061 262.12227867 212.67688822 267.5123291 208.96435547 C270.47580758 206.92344764 273.46006653 204.91323758 276.44116211 202.89819336 C277.32627975 202.29799377 277.32627975 202.29799377 278.22927856 201.68566895 C283.27174819 198.27326678 288.38860131 194.99469832 293.55444336 191.77319336 C299.74990182 187.90185411 305.90396433 183.98528458 311.92285156 179.84277344 C314.98885267 177.74480614 318.0519903 175.83611195 321.34350586 174.10913086 C321.99730225 173.747146 322.65109863 173.38516113 323.32470703 173.01220703 C325.12108967 172.02697591 326.94450852 171.09149896 328.76928711 170.15991211 C333.36309266 164.9290611 331.465676 157.27056798 331.10731506 150.60850525 C330.84981093 146.67387215 330.55460604 142.74310172 330.24584961 138.81225586 C330.13578145 137.36789664 330.02608333 135.92350918 329.91673279 134.47909546 C329.68856857 131.47874155 329.45717301 128.47866185 329.22314453 125.47875977 C328.92452877 121.64972852 328.6323416 117.82024076 328.34233189 113.99054909 C328.11687901 111.01860001 327.88896753 108.04684369 327.66023064 105.07514572 C327.5516594 103.66310106 327.44362321 102.25101515 327.33615303 100.83888626 C327.18543411 98.86579877 327.03125735 96.89297636 326.87695312 94.92016602 C326.79034927 93.80243805 326.70374542 92.68471008 326.61451721 91.53311157 C326.28728339 88.09278438 325.81868574 84.69015083 325.30444336 81.27319336 C303.1500709 95.27141727 303.1500709 95.27141727 281.24194336 109.64819336 C279.51925778 110.80002114 277.79529977 111.94988946 276.07006836 113.09790039 C274.83165789 113.9222516 273.59481059 114.74895368 272.35913086 115.57739258 C259.10472809 124.40833033 246.84648034 131.16023346 230.30444336 129.27319336 C225.54610697 127.80488326 221.23438404 125.71867436 216.80444336 123.46069336 C215.58139843 122.86213092 214.35717161 122.26597802 213.13183594 121.67211914 C209.50583477 119.90515919 205.9051803 118.09107564 202.30444336 116.27319336 C200.34026193 115.29659971 198.37546706 114.32123836 196.40991211 113.34741211 C192.79515975 111.55050554 189.18845931 109.73852994 185.58569336 107.91772461 C180.42158787 105.31768836 175.21458146 102.81562678 169.99194336 100.33569336 C158.93240281 95.08116052 147.93034111 89.71163618 136.92944336 84.33569336 C125.86161997 78.9279137 114.79364339 73.52268352 103.67944336 68.21069336 C93.23823884 63.21909627 82.83164198 58.15791053 72.42944336 53.08569336 C71.18868042 52.48078064 71.18868042 52.48078064 69.92285156 51.86364746 C66.56707513 50.22758799 63.21136037 48.59140207 59.85571289 46.95507812 C51.71427865 42.98508627 43.57231372 39.01619682 35.42694092 35.05429077 C33.95554937 34.33833449 32.4843895 33.62190185 31.01348877 32.90493774 C17.01796331 24.66538091 17.01796331 24.66538091 2.30444336 20.27319336 Z " fill="#804637" transform="translate(14.695556640625,220.726806640625)"/>
<path d="M0 0 C5.7365718 1.9121906 10.39760463 3.51555272 15.6328125 6.1875 C16.22248306 6.48584747 16.81215363 6.78419495 17.41969299 7.09158325 C18.67403932 7.72679019 19.92705714 8.36462664 21.17880249 9.00494385 C24.53815581 10.72252142 27.90837374 12.41857296 31.27734375 14.1171875 C31.94919205 14.45652313 32.62104034 14.79585876 33.31324768 15.14547729 C38.73642021 17.88015586 44.19733608 20.52732259 49.6875 23.125 C61.0047053 28.48876354 72.25075208 33.99551572 83.5 39.5 C100.03188833 47.59453632 100.03188833 47.59453632 116.625 55.5625 C127.07793809 60.52992237 137.47567272 65.60912077 147.875 70.6875 C149.66364139 71.56065737 151.45229698 72.43378564 153.2409668 73.30688477 C156.79331655 75.04097 160.34564307 76.7751028 163.89794922 78.50927734 C164.75314148 78.92675232 165.60833374 79.34422729 166.48944092 79.77435303 C168.11761866 80.56922423 169.74575437 81.36418154 171.37384033 82.15924072 C179.68785985 86.21894625 188.00764344 90.26550187 196.34907532 94.26863098 C200.09209854 96.06839283 203.81715072 97.89995654 207.53050232 99.76013184 C210.40624736 101.19369595 213.29849969 102.59338803 216.1875 104 C217.18386475 104.51111328 218.18022949 105.02222656 219.20678711 105.54882812 C228.96960806 110.22590431 238.44009474 110.32681268 248.75 107.1875 C265.33730303 100.56729036 280.07948079 89.05486343 294.80224609 79.15087891 C299.25855302 76.15346984 303.71869222 73.16183523 308.18310547 70.17651367 C310.32298799 68.74537694 312.46138016 67.31200884 314.59814453 65.8762207 C315.55446777 65.23644287 316.51079102 64.59666504 317.49609375 63.9375 C318.76731079 63.08478516 318.76731079 63.08478516 320.06420898 62.21484375 C322 61 322 61 323 61 C324.53057212 75.46215557 325.76591311 89.93726019 326.85986328 104.4387207 C327.12652494 107.95762332 327.40103386 111.47586119 327.67578125 114.99414062 C327.84943543 117.27600541 328.02262885 119.55790531 328.1953125 121.83984375 C328.27653351 122.86931625 328.35775452 123.89878876 328.44143677 124.9594574 C328.6642373 127.97207964 328.84168328 130.98333125 329 134 C329.11037346 135.72874611 329.11037346 135.72874611 329.22297668 137.49241638 C329.56395024 146.23617374 329.56395024 146.23617374 326.94311523 149.78588867 C325.99122314 150.3244751 325.03933105 150.86306152 324.05859375 151.41796875 C323.00808838 152.04630615 321.95758301 152.67464355 320.87524414 153.32202148 C319.74078857 153.93762939 318.60633301 154.5532373 317.4375 155.1875 C316.26846595 155.86876418 315.10237089 156.55509561 313.93920898 157.24633789 C311.65339465 158.5991374 309.35819141 159.92512142 307.04980469 161.24023438 C303.43954464 163.32338794 299.9916313 165.5727055 296.5625 167.9375 C295.42181339 168.70627089 294.27981694 169.47310079 293.13671875 170.23828125 C292.51200684 170.65674316 291.88729492 171.07520508 291.24365234 171.50634766 C286.70821778 174.52569354 282.15171664 177.51306295 277.59396362 180.49856567 C275.93621121 181.58488839 274.27972638 182.67314471 272.62329102 183.76147461 C267.13515929 187.35324097 261.62572406 190.91157808 256.0703125 194.3984375 C255.04953613 195.04216309 254.02875977 195.68588867 252.97705078 196.34912109 C246.35284593 200.02247465 240.01262091 201.20766114 232.6328125 199.4296875 C230.36627295 198.7047001 228.19110342 197.9292114 226 197 C225.0311084 196.61013916 224.0622168 196.22027832 223.06396484 195.81860352 C217.72768482 192.65127683 216.21833143 187.27709843 214.57281494 181.55395508 C212.4692568 172.17502201 212.55056133 162.31616635 212.1875 152.75 C212.02903492 149.25457485 211.86326472 145.75954329 211.69734192 142.26446533 C211.59767895 140.10649663 211.5037474 137.94825206 211.41679382 135.78973389 C211.33614131 133.82044076 211.24486004 131.85154764 211.14178467 129.88330078 C211.04463865 127.90776135 210.98228151 125.93029198 210.94952393 123.95263672 C210.83037692 118.0999316 210.83037692 118.0999316 207.49755859 113.54882812 C206.39234863 113.04802734 205.28713867 112.54722656 204.1484375 112.03125 C203.24627251 111.60036827 203.24627251 111.60036827 202.32588196 111.16078186 C200.35858304 110.23256621 198.36973759 109.36745436 196.375 108.5 C194.99003554 107.85949665 193.60698826 107.21483244 192.22583008 106.56616211 C189.45103782 105.27019757 186.66752007 103.99746992 183.87255859 102.74560547 C179.65945612 100.85596275 175.50040231 98.86259851 171.34521484 96.84912109 C168.61017399 95.52506586 165.86669856 94.2199642 163.12109375 92.91796875 C155.81187836 89.44253826 148.53106165 85.90891547 141.25 82.375 C140.55248627 82.03651031 139.85497253 81.69802063 139.13632202 81.34927368 C135.53918393 79.60351201 131.94233543 77.85715499 128.34570312 76.11035156 C124.78298144 74.38005201 121.21975901 72.65078691 117.65634155 70.92192078 C102.09350463 63.37105286 86.53912952 55.80305577 70.99401855 48.21575928 C57.95192058 41.85032796 44.90932552 35.48590917 31.85430908 29.14700317 C30.4816601 28.48034654 29.10921386 27.81327224 27.73699951 27.14572144 C19.20340005 22.99505422 10.63187008 18.94252781 2 15 C1.67 17.31 1.34 19.62 1 22 C0.67 22 0.34 22 0 22 C0 14.74 0 7.48 0 0 Z " fill="#AEAFAF" transform="translate(17,241)"/>
<path d="M0 0 C2.32864041 2.32864041 2.27569878 2.82730259 2.4230957 5.98388672 C2.46686844 6.80589569 2.51064117 7.62790466 2.55574036 8.474823 C2.59535385 9.36742828 2.63496735 10.26003357 2.67578125 11.1796875 C2.78251553 13.07816378 2.88996129 14.97660017 2.99804688 16.875 C3.15782 19.86068413 3.31115773 22.84631764 3.45092773 25.83300781 C4.14204341 40.18234185 5.45889322 51.37501589 14.1796875 63.28125 C15 65 15 65 14.6953125 67.09375 C14 69 14 69 13 71 C13.14308594 72.04027344 13.14308594 72.04027344 13.2890625 73.1015625 C13.67543975 76.00388467 13.68266284 78.14292958 13 81 C9.87119701 84.4663502 5.9911434 86.62911435 2 89 C0.29101869 90.06611684 -1.41785445 91.13241409 -3.12426758 92.20263672 C-4.4050776 93.00316382 -5.68891789 93.79885778 -6.9753418 94.59033203 C-13.8676089 98.84813371 -20.58610828 103.36208468 -27.3125 107.875 C-36.8521229 114.27279131 -46.45988601 120.53856436 -56.20703125 126.6171875 C-56.8518042 127.02356445 -57.49657715 127.42994141 -58.16088867 127.84863281 C-59.3713531 128.6064385 -60.59020658 129.3510322 -61.81762695 130.08105469 C-63.665435 131.1821683 -63.665435 131.1821683 -66 133 C-66.37400786 135.32716 -66.70764733 137.66117862 -67 140 C-69.73488557 142.73488557 -72.56043034 144.32055128 -76 146 C-77.86413339 129.11469559 -79.08472193 112.18543516 -80.28710938 95.24316406 C-80.56911559 91.27172166 -80.85765003 87.3007829 -81.1478672 83.32993317 C-81.37393166 80.22433544 -81.59600034 77.11846117 -81.81696701 74.01249695 C-81.92167418 72.54862383 -82.02769115 71.08484368 -82.13515091 69.62117004 C-82.7608592 61.07064585 -83.14906609 52.57679981 -83 44 C-83.78560303 43.77344727 -84.57120605 43.54689453 -85.38061523 43.31347656 C-90.11405184 41.59571003 -94.45001518 39.30899981 -98.91015625 36.984375 C-100.89082529 35.96917218 -102.87196144 34.95488029 -104.85351562 33.94140625 C-107.93775716 32.35955701 -111.01889781 30.77274805 -114.09204102 29.16943359 C-137.20858404 17.132973 -159.78757322 8.40271506 -186 15 C-182.72920334 12.19416953 -179.61595728 11.07391416 -175.5 9.875 C-173.81390625 9.37613281 -173.81390625 9.37613281 -172.09375 8.8671875 C-171.0728125 8.58101562 -170.051875 8.29484375 -169 8 C-168.33871094 7.80019531 -167.67742187 7.60039062 -166.99609375 7.39453125 C-144.07190378 2.86352697 -122.29484062 14.52248397 -102.625 24.5625 C-100.95220906 25.40896665 -99.27903316 26.25467299 -97.60546875 27.09960938 C-94.44484157 28.69658626 -91.28627921 30.29750982 -88.12988281 31.90283203 C-83.43130162 34.29151193 -78.71827587 36.65047159 -74 39 C-74 41.97 -74 44.94 -74 48 C-65.6965801 42.87173804 -57.44713487 37.68668992 -49.34692383 32.24243164 C-42.97307724 27.96467678 -36.55109193 23.76122873 -30.125 19.5625 C-29.28394714 19.01287598 -29.28394714 19.01287598 -28.42590332 18.45214844 C-18.96867162 12.27343283 -9.49394324 6.12213889 0 0 Z " fill="#AEAFAF" transform="translate(482,209)"/>
<path d="M0 0 C3.17152976 1.69445555 6.35845632 3.35960668 9.54315186 5.02914429 C10.20136932 5.37519211 10.85958679 5.72123993 11.53775024 6.07777405 C18.70269943 9.83614381 25.94449389 13.43646596 33.19158936 17.03305054 C41.88129855 21.35235606 50.52706189 25.73487822 59.08856201 30.30380249 C66.84391535 34.41694857 74.70782592 38.31006873 82.56658936 42.22055054 C91.06944058 46.4515553 99.56468194 50.68100691 107.94158936 55.15805054 C117.47340688 60.25111816 127.15873267 65.0333816 136.83276367 69.84851074 C145.93104249 74.37889234 155.00897045 78.93074487 163.95941162 83.74911499 C168.07547714 85.95433572 172.22969271 88.02852304 176.45330811 90.02133179 C177.45909912 90.50231323 178.46489014 90.98329468 179.50115967 91.47885132 C181.44673212 92.40481727 183.4001898 93.31446439 185.36248779 94.20443726 C191.20695317 97.00263811 194.106582 99.13749511 196.56658936 105.22055054 C196.41313816 109.21028153 195.79261938 110.8815055 193.56658936 114.22055054 C188.80976265 112.4589167 184.38110032 110.14314676 179.88299561 107.81820679 C179.03918839 107.38449768 178.19538116 106.95078857 177.32600403 106.50393677 C175.52455795 105.57785122 173.72360227 104.65081122 171.9230957 103.72290039 C167.25328526 101.31638263 162.57998873 98.91666004 157.90643311 96.51742554 C156.53938232 95.81544792 156.53938232 95.81544792 155.14471436 95.09928894 C148.51566174 91.69870197 141.86658739 88.34268227 135.19158936 85.03305054 C129.01945135 81.97070026 122.89815499 78.83393417 116.81658936 75.59555054 C107.81627243 70.80346858 98.69411369 66.26366776 89.56658936 61.72055054 C79.98287138 56.95028461 70.42569499 52.15553197 60.98455811 47.10726929 C52.17921072 42.43089474 43.23059369 38.03596261 34.30490112 33.59533691 C25.82141169 29.3733792 17.36322274 25.12300516 9.00408936 20.65805054 C3.11049798 17.51440613 -2.83276233 14.5153139 -8.87091064 11.65805054 C-9.5761084 11.32281372 -10.28130615 10.9875769 -11.00787354 10.6421814 C-16.93117209 7.87914155 -21.61634865 7.01922827 -28.12091064 6.97055054 C-29.1254126 6.93961304 -29.1254126 6.93961304 -30.15020752 6.90805054 C-38.8705805 6.84141922 -45.78821371 10.0063962 -52.87091064 14.84555054 C-54.35644285 15.83274775 -55.84213052 16.81971105 -57.32794189 17.80648804 C-58.13698975 18.34886108 -58.9460376 18.89123413 -59.77960205 19.45004272 C-64.8461883 22.8302528 -69.95725054 26.14285822 -75.05841064 29.47055054 C-77.30760509 30.94114625 -79.55604551 32.41289302 -81.80450439 33.88461304 C-90.73174022 39.72616372 -99.66941042 45.55170305 -108.60675049 51.3777771 C-113.38273864 54.49136827 -118.1580365 57.60601778 -122.93341064 60.72055054 C-124.85007407 61.9705555 -126.76674074 63.2205555 -128.68341064 64.47055054 C-129.63216064 65.08930054 -130.58091064 65.70805054 -131.55841064 66.34555054 C-163.18341064 86.97055054 -163.18341064 86.97055054 -166.05767822 88.84506226 C-167.97679924 90.09667001 -169.89590729 91.34829765 -171.81500244 92.59994507 C-176.56901197 95.70050871 -181.32323711 98.80074065 -186.07794189 101.90023804 C-196.20110873 108.49987166 -206.32001097 115.10595775 -216.43341064 121.72055054 C-228.42660556 129.56433997 -240.42647225 137.39781595 -252.43341064 145.22055054 C-253.36040771 145.82479858 -254.28740479 146.42904663 -255.24249268 147.05160522 C-257.95142567 148.81708388 -260.66105538 150.5814879 -263.37091064 152.34555054 C-264.16932373 152.86600952 -264.96773682 153.38646851 -265.79034424 153.92269897 C-268.00117787 155.36084601 -270.21682186 156.79129529 -272.43341064 158.22055054 C-273.17671631 158.7067688 -273.92002197 159.19298706 -274.68585205 159.69393921 C-275.39789795 160.15260376 -276.10994385 160.61126831 -276.84356689 161.08383179 C-277.47528809 161.49415649 -278.10700928 161.9044812 -278.75787354 162.32723999 C-280.43341064 163.22055054 -280.43341064 163.22055054 -282.93341064 163.28305054 C-286.52133101 161.75818438 -289.99430317 160.05531011 -293.43341064 158.22055054 C-292.28042781 154.76160204 -291.70303231 154.47858783 -288.70684814 152.65414429 C-287.54197876 151.93400146 -287.54197876 151.93400146 -286.35357666 151.1993103 C-285.51367188 150.69069458 -284.67376709 150.18207886 -283.80841064 149.65805054 C-282.05355659 148.57364534 -280.29965966 147.48768983 -278.54669189 146.40023804 C-277.23885742 145.59151245 -277.23885742 145.59151245 -275.90460205 144.76644897 C-272.55588436 142.67159811 -269.2699745 140.49214517 -265.99591064 138.28305054 C-260.40365277 134.52319444 -254.77500628 130.82428636 -249.12091064 127.15805054 C-241.21332454 122.03007281 -233.31956827 116.88142532 -225.43341064 111.72055054 C-217.77431001 106.70884827 -210.11061506 101.70448187 -202.43341064 96.72055054 C-193.70444452 91.05345636 -184.99296183 85.35984432 -176.28375244 79.66244507 C-166.28204507 73.11990309 -156.27214084 66.58999309 -146.2600708 60.06332397 C-141.48408265 56.94973281 -136.70878479 53.8350833 -131.93341064 50.72055054 C-130.01674721 49.47054557 -128.10008055 48.22054557 -126.18341064 46.97055054 C-125.23466064 46.35180054 -124.28591064 45.73305054 -123.30841064 45.09555054 C-112.76674398 38.22055054 -102.22507731 31.34555054 -91.68341064 24.47055054 C-90.73353271 23.85099487 -89.78365479 23.23143921 -88.80499268 22.59310913 C-86.89997853 21.35084944 -84.99470757 20.10898347 -83.08917236 18.86752319 C-78.11697787 15.62737933 -73.15024126 12.37926883 -68.19122314 9.11898804 C-66.65111572 8.1086853 -66.65111572 8.1086853 -65.07989502 7.07797241 C-63.12899914 5.79797286 -61.179664 4.51558989 -59.23223877 3.23031616 C-38.26805925 -10.50797671 -22.39856421 -11.96991218 0 0 Z " fill="#DABF94" transform="translate(307.43341064453125,62.779449462890625)"/>
<path d="M0 0 C5.03372844 1.43820813 6.98955889 3.90245515 10 8 C11.96798852 13.90396555 12.0728436 20.63080371 9.5 26.3125 C4.06465515 32.15549571 -1.89670948 36.74333914 -8.5 41.1875 C-9.11657471 41.60354492 -9.73314941 42.01958984 -10.3684082 42.44824219 C-14.15466691 44.94410556 -18.0044074 47.03194963 -22.07958984 49.0144043 C-25.06291427 50.54551042 -27.80625856 52.41384397 -30.5625 54.3125 C-31.87938929 55.20433561 -33.19715643 56.09487584 -34.515625 56.984375 C-35.23041016 57.46712891 -35.94519531 57.94988281 -36.68164062 58.44726562 C-41.98991522 62.00251272 -47.35829985 65.46697054 -52.71459961 68.94921875 C-57.58024767 72.11417853 -62.44092966 75.28598335 -67.28440857 78.48475647 C-69.65308766 80.04899065 -72.02384407 81.61006257 -74.3946228 83.17111206 C-75.53925126 83.92612959 -76.68284518 84.68271809 -77.8253479 85.44094849 C-79.42515155 86.50244981 -81.02891119 87.55798158 -82.6328125 88.61328125 C-83.54949707 89.21954346 -84.46618164 89.82580566 -85.41064453 90.45043945 C-87.88619298 91.93189391 -90.29385369 93.01442066 -93 94 C-93 91.03 -93 88.06 -93 85 C-94.423125 84.5359375 -94.423125 84.5359375 -95.875 84.0625 C-99 83 -99 83 -101 82 C-101 81.34 -101 80.68 -101 80 C-98.67485759 78.41120361 -96.35130697 76.94327034 -93.9375 75.5 C-92.44288334 74.58647687 -90.94941607 73.6710709 -89.45703125 72.75390625 C-88.70115723 72.29000488 -87.9452832 71.82610352 -87.16650391 71.34814453 C-84.10691604 69.44426306 -81.11218651 67.45245192 -78.125 65.4375 C-71.28648484 60.83965411 -64.39890556 56.31918113 -57.5 51.8125 C-56.66447601 51.26656189 -56.66447601 51.26656189 -55.81207275 50.70959473 C-49.82604502 46.7985479 -43.8366925 42.89263296 -37.84375 38.9921875 C-35.89582232 37.72397525 -33.94790539 36.45574648 -32 35.1875 C-31.06510742 34.5793042 -30.13021484 33.9711084 -29.16699219 33.34448242 C-24.65024562 30.40097127 -20.14782115 27.43884818 -15.671875 24.43359375 C-14.83914063 23.87454346 -14.00640625 23.31549316 -13.1484375 22.73950195 C-11.59409872 21.69320285 -10.04187424 20.6437532 -8.4921875 19.59057617 C-7.80898438 19.13013916 -7.12578125 18.66970215 -6.421875 18.1953125 C-5.82987305 17.79328613 -5.23787109 17.39125977 -4.62792969 16.97705078 C-3 16 -3 16 0 15 C2.55456668 9.50768164 1.86123596 5.58370787 0 0 Z " fill="#804637" transform="translate(501,163)"/>
<path d="M0 0 C2.4936903 1.26185863 4.98847341 2.52147559 7.4848175 3.77807617 C9.07859373 4.58752374 10.66682867 5.40798714 12.24894714 6.23999023 C15.4767773 7.92843871 18.42405216 9.37747565 21.92700195 10.42382812 C25.02972553 11.37429755 26.51688255 11.950124 28.625 14.4375 C30.81167186 20.92801174 30.7355416 28.03813203 31.0625 34.8125 C31.19437088 36.83591179 31.33081713 38.85903023 31.47167969 40.88183594 C31.75467855 45.02985755 32.01262607 49.17830999 32.25146484 53.32910156 C32.58887966 59.05825361 33.03266566 64.77401051 33.51953125 70.4921875 C33.66553467 72.23127511 33.81145116 73.97037001 33.95727539 75.70947266 C34.0272171 76.54214661 34.09715881 77.37482056 34.16921997 78.23272705 C34.27108109 79.44783966 34.27108109 79.44783966 34.375 80.6875 C34.47335648 81.85886505 34.47335648 81.85886505 34.57369995 83.05389404 C34.99587761 88.17856171 35.35161117 93.302719 35.625 98.4375 C35.66858643 99.21343506 35.71217285 99.98937012 35.75708008 100.78881836 C35.87430076 103.12487614 35.9513992 105.45881728 36.015625 107.796875 C36.07142731 108.86038177 36.07142731 108.86038177 36.12835693 109.94537354 C36.18124312 113.62157867 35.94537771 115.10611748 33.35058594 117.79003906 C31.13988195 119.12628329 28.98448819 120.38883858 26.625 121.4375 C24.76086661 104.55219559 23.54027807 87.62293516 22.33789062 70.68066406 C22.05588441 66.70922166 21.76734997 62.7382829 21.4771328 58.76743317 C21.25106834 55.66183544 21.02899966 52.55596117 20.80803299 49.44999695 C20.70332582 47.98612383 20.59730885 46.52234368 20.48984909 45.05867004 C19.8641408 36.50814585 19.47593391 28.01429981 19.625 19.4375 C18.83939697 19.21094727 18.05379395 18.98439453 17.24438477 18.75097656 C12.51094816 17.03321003 8.17498482 14.74649981 3.71484375 12.421875 C1.73417471 11.40667218 -0.24696144 10.39238029 -2.22851562 9.37890625 C-5.31275716 7.79705701 -8.39389781 6.21024805 -11.46704102 4.60693359 C-34.58358404 -7.429527 -57.16257322 -16.15978494 -83.375 -9.5625 C-80.10420334 -12.36833047 -76.99095728 -13.48858584 -72.875 -14.6875 C-71.18890625 -15.18636719 -71.18890625 -15.18636719 -69.46875 -15.6953125 C-67.93734375 -16.12457031 -67.93734375 -16.12457031 -66.375 -16.5625 C-65.71371094 -16.76230469 -65.05242187 -16.96210938 -64.37109375 -17.16796875 C-41.44690378 -21.69897303 -19.66984062 -10.04001603 0 0 Z " fill="#DABF95" transform="translate(379.375,233.5625)"/>
</svg>
